# xmcd
#
# Track frame offsets:
#	150
#	14772
#	33006
#	51954
#	67071
#	85226
#	101795
#	122329
#	136740
#	156312
#	175302
#	190962
#	205230
#	218915
#	236825
#	255216
#	269187
#
# Disc length: 3801 seconds
#
# Revision: 0
# Processed by: cddbd v1.5.2PL0 Copyright (c) Steve Scherf et al.
# Submitted via: audiograbber 1.83.01
#
DISCID=fa0ed711
DTITLE=Various Artist - Alan Custom 3
DYEAR=2008
DGENRE=Karaoke
TTITLE0=Sammy Kershaw - She Don't Know She's Beautiful
TTITLE1=Alan Jackson/Jimmy Buffet - It's Five O'Clock Somewhere
TTITLE2=Toby Keith - American Soldier
TTITLE3=Montgomery Gentry - Lucky Man
TTITLE4=Toby Keith - I Love This Bar
TTITLE5=George Strait - Cowboys Like Us
TTITLE6=Tim McGraw - Bach When
TTITLE7=Brad Paisley - Mud On The Tires
TTITLE8=Brad Paisley - Alcohol
TTITLE9=George Strait - Wrapped
TTITLE10=Toby Keith - High Maintenance
TTITLE11=Aaron Tippin - Kiss This
TTITLE12=Josh Turner - Me And God
TTITLE13=Jake Owen - Startin' With Me
TTITLE14=Joe Nichols - I'll Wait For You
TTITLE15=George Srait - It Just Comes Natural
TTITLE16=Billy Currington - Good Directions
EXTD=
EXTT0=
EXTT1=
EXTT2=
EXTT3=
EXTT4=
EXTT5=
EXTT6=
EXTT7=
EXTT8=
EXTT9=
EXTT10=
EXTT11=
EXTT12=
EXTT13=
EXTT14=
EXTT15=
EXTT16=
PLAYORDER=
